<svg width="231" height="51" viewBox="0 0 231 51" fill="none" xmlns="http://www.w3.org/2000/svg">
<path d="M9.072 0.599997H19.8L28.008 51H20.088L18.648 40.992V41.136H9.648L8.208 51H0.864L9.072 0.599997ZM17.712 34.296L14.184 9.384H14.04L10.584 34.296H17.712ZM31.8504 0.599997H41.7864L49.4904 30.768H49.6344V0.599997H56.6904V51H48.5544L39.0504 14.208H38.9064V51H31.8504V0.599997ZM62.577 0.599997H70.497V51H62.577V0.599997ZM76.4286 0.599997H87.7326L92.7726 36.672H92.9166L97.9566 0.599997H109.261V51H101.773V12.84H101.629L95.8686 51H89.2446L83.4846 12.84H83.3406V51H76.4286V0.599997ZM115.171 0.599997H136.771V7.8H123.091V21.12H133.963V28.32H123.091V43.8H136.771V51H115.171V0.599997Z" fill="#FF1010"/>
<path d="M141.327 0.599997H162.279V7.8H149.247V21.84H159.471V29.04H149.247V51H141.327V0.599997ZM166.077 0.599997H173.997V43.8H187.029V51H166.077V0.599997ZM190.827 0.599997H198.747V51H190.827V0.599997ZM211.663 25.224L202.951 0.599997H211.303L216.631 16.872H216.775L222.247 0.599997H229.735L221.023 25.224L230.167 51H221.815L216.055 33.432H215.911L210.007 51H202.519L211.663 25.224Z" fill="#FFD6AF"/>
</svg>
